# AST/ASF file generated using VICON BodyLanguage
# -----------------------------------------------
:version 1.10
:name VICON
:units
  mass 1.0
  length 0.45
  angle deg
:documentation
   .ast/.asf automatically generated from VICON data using
   VICON BodyBuilder and BodyLanguage model FoxedUp or BRILLIANT.MOD
:root
   order TX TY TZ RX RY RZ
   axis XYZ
   position 0 0 0  
   orientation 0 0 0 
:bonedata
  begin
     id 1 
     name lhipjoint
     direction 0.535335 -0.74333 0.401095 
     length 2.04549 
     axis 0 0 0  XYZ
  end
  begin
     id 2 
     name lfemur
     direction 0.34202 -0.939693 0  
     length 6.95643  
     axis 0 0 20  XYZ
    dof rx ry rz
    limits (-160.0 20.0)
           (-70.0 70.0)
           (-60.0 70.0)
  end
  begin
     id 3 
     name ltibia
     direction 0.34192 -0.939729 0   
     length 5.55969   
     axis 0 0 20   XYZ
    dof rx
    limits (-10.0 170.0)
  end
  begin
     id 4 
     name lfoot
     direction 0.216943 -0.596046 0.773088   
     length 2.27918   
     axis -90 7.62852e-016 20   XYZ
    dof rx rz
    limits (-45.0 90.0)
           (-70.0 20.0)
  end
  begin
     id 5 
     name ltoes
     direction 1.53519e-011 -4.21748e-011 1   
     length 1.05562   
     axis -90 7.62852e-016 20   XYZ
    dof rx
    limits (-90.0 20.0)
  end
  begin
     id 6 
     name rhipjoint
     direction -0.576368 -0.719173 0.38806   
     length 2.1142  
     axis 0 0 0  XYZ 
  end
  begin
     id 7 
     name rfemur
     direction -0.34202 -0.939693 0   
     length 7.07928   
     axis 0 0 -20   XYZ
    dof rx ry rz
    limits (-160.0 20.0)
           (-70.0 70.0)
           (-70.0 60.0)
  end
  begin
     id 8 
     name rtibia
     direction -0.34202 -0.939693 0   
     length 5.79974   
     axis 0 0 -20   XYZ
    dof rx
    limits (-10.0 170.0)
 end
 begin
     id 9 
     name rfoot
     direction -0.189288 -0.520065 0.832888   
     length 2.42173  
     axis -90 -7.62852e-016 -20   XYZ
    dof rx rz
    limits (-45.0 90.0)
           (-20.0 70.0)
  end
  begin
     id 10 
     name rtoes
     direction -1.53574e-011 -4.21658e-011 1   
     length 1.14469   
     axis -90 -7.62852e-016 -20   XYZ
    dof rx
    limits (-90.0 20.0)
  end
  begin
     id 11 
     name lowerback
     direction -0.00135702 0.993803 0.111144   
     length 1.91308   
     axis 0 0 0   XYZ
    dof rx ry rz
    limits (-20.0 45.0)
           (-30.0 30.0)
           (-30.0 30.0)
  end
  begin
     id 12 
     name upperback
     direction -0.0056745 0.999813 0.0184631   
     length 1.9212   
     axis 0 0 0   XYZ
    dof rx ry rz
    limits (-20.0 45.0)
           (-30.0 30.0)
           (-30.0 30.0)
  end
  begin
     id 13 
     name thorax
     direction -0.00733434 0.999426 -0.0330788   
     length 1.94196   
     axis 0 0 0   XYZ
    dof rx ry rz
    limits (-20.0 45.0)
           (-30.0 30.0)
           (-30.0 30.0)
  end
  begin
     id 14 
     name lowerneck
     direction 0.0563074 0.996944 -0.0541571   
     length 2.34257   
     axis 0 0 0   XYZ
    dof rx ry rz
    limits (-20.0 45.0)
           (-30.0 30.0)
           (-30.0 30.0)
  end
  begin
     id 15 
     name upperneck
     direction -0.0544519 0.976166 -0.210085   
     length 2.32506   
     axis 0 0 0   XYZ
    dof rx ry rz
    limits (-20.0 45.0)
           (-30.0 30.0)
           (-30.0 30.0)
  end
  begin
     id 16
     name head
     direction -0.0226035 0.997615 -0.0652205  
     length 2.3648  
     axis 0 0 0   XYZ
    dof rx ry rz
    limits (-20.0 45.0)
           (-30.0 30.0)
           (-30.0 30.0)
  end
  begin
     id 17 
     name lclavicle
     direction 0.92109 0.381297 -0.0787716  
     length 4.0487  
     axis 0 0 0   XYZ
    dof ry rz
    limits (-20.0 10.0)
           (0.0 20.0)
  end
  begin
     id 18 
     name lhumerus
     direction 1 -4.48986e-011 3.56724e-027   
     length 4.94991   
     axis 180 -30 -90   XYZ
    dof rx ry rz
    limits (-60.0 90.0)
           (-90.0 90.0)
           (-90.0 90.0)
  end
  begin
     id 19
     name lradius
     direction 1 -4.48981e-011 8.62147e-027   
     length 2.7606   
     axis 180 -30 -90   XYZ
    dof rx
    limits (-10.0 170.0)
  end
  begin
     id 20
     name lwrist
     direction 1 -4.48989e-011 1.59799e-026   
     length 1.3803   
     axis -1.17785e-014 90 90   XYZ
    dof ry
    limits (-180.0 0.0)
 end
  begin
     id 21 
     name lhand
     direction 1 -4.48896e-011 3.19599e-026   
     length 0.843936   
     axis -2.03931e-014 90 90   XYZ
    dof rx rz
    limits (-90.0 90.0)
           (-45.0 45.0)
  end
  begin
     id 22 
     name lfingers
     direction 1 -4.48887e-011 6.39197e-026   
     length 0.680403   
     axis -4.07862e-014 90 90   XYZ
    dof rx
    limits (0.0 90.0)
  end
  begin
     id 23
     name lthumb
     direction 0.707107 -6.348e-011 0.707107   
     length 0.976926   
     axis -90 45 2.85299e-015   XYZ
    dof rx rz
    limits (-45.0 45.0)
           (-45.0 45.0)
  end
  begin
     id 24 
     name rclavicle
     direction -0.951104 0.307692 -0.026953   
     length 4.21801  
     axis 0 0 0   XYZ 
    dof ry rz
    limits (-10.0 20.0)
           (-20.0 0.0)
  end
  begin
     id 25 
     name rhumerus
     direction -1 -4.4896e-011 -1.8171e-018  
     length 4.32982   
     axis 180 30 90   XYZ
    dof rx ry rz
    limits (-90.0 60.0)
           (-90.0 90.0)
           (-90.0 90.0)
  end
  begin
     id 26 
     name rradius
     direction -1 -4.48959e-011 8.25165e-027   
     length 3.20057   
     axis 180 30 90   XYZ
    dof rx
    limits (-10.0 170.0)
  end
  begin
     id 27 
     name rwrist
     direction -1 -4.48997e-011 1.59799e-026   
     length 1.60029   
     axis -1.17785e-014 -90 -90   XYZ
    dof ry
    limits (-180.0 0.0)
  end
  begin
     id 28
     name rhand
     direction -1 -4.49023e-011 3.19599e-026   
     length 0.960433   
     axis -2.03931e-014 -90 -90   XYZ
    dof rx rz
    limits (-90.0 90.0)
           (-45.0 45.0)
  end
  begin
     id 29
     name rfingers
     direction -1 -4.48802e-011 6.39197e-026   
     length 0.774326   
     axis -4.07862e-014 -90 -90   XYZ
    dof rx
    limits (0.0 90.0)
  end
  begin
     id 30
     name rthumb
     direction -0.707107 -6.34876e-011 0.707107   
     length 1.11178   
     axis -90 -45 -2.85299e-015   XYZ
    dof rx rz
    limits (-45.0 45.0)
           (-45.0 45.0)
  end
:hierarchy
  begin
    root lhipjoint rhipjoint lowerback
    lhipjoint lfemur
    lfemur ltibia
    ltibia lfoot
    lfoot ltoes
    rhipjoint rfemur
    rfemur rtibia
    rtibia rfoot
    rfoot rtoes
    lowerback upperback
    upperback thorax
    thorax lowerneck lclavicle rclavicle
    lowerneck upperneck
    upperneck head
    lclavicle lhumerus
    lhumerus lradius
    lradius lwrist
    lwrist lhand lthumb
    lhand lfingers
    rclavicle rhumerus
    rhumerus rradius
    rradius rwrist
    rwrist rhand rthumb
    rhand rfingers
end

#!OML:ASF C:\KaitlinTest1\Natural Motions\Nikki\Session 2\Nikki.ASF
:FULLY-SPECIFIED
:DEGREES
39
root -13.6941 16.6509 4.55577 -107.866 87.7244 -115.978
lowerback -11.1396 -0.937412 2.92831
upperback -3.63585 -1.39031 -1.14861
thorax 2.34456 -0.645797 -3.02046
lowerneck -5.2985 -11.7267 -9.77801
upperneck 5.99198 40.7328 5.85408
head 167.217 61.7941 -37.7188
rclavicle 1.55052e-014 7.55382e-015
rhumerus -40.5224 -29.9736 -79.3633
rradius 16.7067
rwrist 28.0251
rhand -36.4772 1.89451
rfingers 7.12502
rthumb -9.57022 -27.8681
lclavicle 1.55052e-014 7.55382e-015
lhumerus -40.0394 17.0707 80.5067
lradius 20.0989
lwrist -42.9928
lhand -33.4806 3.32113
lfingers 7.12502
lthumb -6.67821 33.1958
rfemur -5.46695 -13.7836 20.0523
rtibia 11.688
rfoot -11.2317 11.0461
rtoes -2.38542e-015
lfemur -11.1294 14.7065 -18.772
ltibia 15.9726
lfoot -5.14682 -15.2628
ltoes -2.8625e-014
40
root -13.6941 16.6506 4.55679 -107.87 87.706 -115.984
lowerback -11.1544 -0.938906 2.93898
upperback -3.62474 -1.39458 -1.13935
thorax 2.36384 -0.647542 -3.01791
lowerneck -5.31698 -11.7317 -9.77824
upperneck 5.98549 40.7293 5.84652
head 167.197 61.7854 -37.7311
rclavicle -2.68359e-015 -1.03368e-014
rhumerus -40.5088 -29.9633 -79.3681
rradius 16.712
rwrist 27.9792
rhand -36.4919 1.952
rfingers 7.12502
rthumb -9.58447 -27.81
lclavicle -2.68359e-015 -1.03368e-014
lhumerus -39.9975 17.0501 80.5335
lradius 20.0627
lwrist -42.9451
lhand -33.5032 3.36983
lfingers 7.12502
lthumb -6.7 33.2438
rfemur -5.46616 -13.8001 20.078
rtibia 11.683
rfoot -11.2224 11.0355
rtoes 1.27222e-014
lfemur -11.1281 14.6519 -18.7457
ltibia 15.9698
lfoot -5.10589 -15.2085
ltoes -1.11319e-014
41
root -13.6929 16.6505 4.55696 -107.472 87.7064 -115.587
lowerback -11.1555 -0.93009 2.95109
upperback -3.62202 -1.38435 -1.14092
thorax 2.36767 -0.642423 -3.02517
lowerneck -5.3223 -11.7359 -9.76714
upperneck 5.9837 40.7264 5.85072
head 167.206 61.7832 -37.7275
rclavicle 3.42904e-015 -2.38542e-015
rhumerus -40.5268 -30.0425 -79.3009
rradius 16.6779
rwrist 28.0767
rhand -36.4873 2.01154
rfingers 7.12502
rthumb -9.57999 -27.7507
lclavicle 3.42904e-015 -2.38542e-015
lhumerus -40.0122 17.1362 80.4683
lradius 20.0613
lwrist -43.0113
lhand -33.5144 3.26226
lfingers 7.12502
lthumb -6.71079 33.1359
rfemur -5.44734 -13.7591 20.0767
rtibia 11.6601
rfoot -11.2087 11.0232
rtoes -7.63333e-014
lfemur -11.1174 14.652 -18.7379
ltibia 15.9678
lfoot -5.13313 -15.185
ltoes -5.40694e-014
42
root -13.6926 16.6501 4.55858 -107.69 87.7117 -115.79
lowerback -11.116 -0.934257 2.92333
upperback -3.63303 -1.38557 -1.14221
thorax 2.33524 -0.643698 -3.00984
lowerneck -5.31993 -11.7284 -9.76654
upperneck 6.01043 40.8105 5.8783
head 167.267 61.72 -37.7052
rclavicle 2.83268e-015 -1.19271e-015
rhumerus -40.5632 -29.9823 -79.3262
rradius 16.7021
rwrist 27.9818
rhand -36.5032 2.04637
rfingers 7.12502
rthumb -9.59536 -27.7151
lclavicle 2.83268e-015 -1.19271e-015
lhumerus -40.0297 17.0389 80.5138
lradius 20.0739
lwrist -42.9124
lhand -33.5809 3.30293
lfingers 7.12502
lthumb -6.77502 33.1745
rfemur -5.4236 -13.7348 20.0731
rtibia 11.6394
rfoot -11.1868 10.9956
rtoes -2.3059e-014
lfemur -11.1038 14.6565 -18.738
ltibia 15.9644
lfoot -5.11226 -15.2425
ltoes 6.36111e-015
43
root -13.6922 16.6509 4.55833 -107.692 87.7142 -115.809
lowerback -11.1695 -0.928476 2.93546
upperback -3.62119 -1.38137 -1.12453
thorax 2.3773 -0.64062 -2.99923
lowerneck -5.33102 -11.7412 -9.80573
upperneck 5.99768 40.7792 5.83763
head 167.156 61.7179 -37.7607
rclavicle 0 1.59028e-015
rhumerus -40.5431 -29.9787 -79.2816
rradius 16.6901
rwrist 28.0091
rhand -36.5 2.08105
rfingers 7.12502
rthumb -9.59221 -27.6806
lclavicle 0 1.59028e-015
lhumerus -40.0095 17.0955 80.5384
lradius 20.0421
lwrist -42.9928
lhand -33.5539 3.30178
lfingers 7.12502
lthumb -6.74898 33.1742
rfemur -5.43993 -13.7736 20.072
rtibia 11.6439
rfoot -11.1801 11.0368
rtoes -1.43125e-014
lfemur -11.1172 14.6661 -18.7462
ltibia 15.954
lfoot -5.08535 -15.2664
ltoes 5.725e-014
44
root -13.6926 16.6512 4.56 -107.875 87.7004 -116.001
lowerback -11.1868 -0.936887 2.93696
upperback -3.59935 -1.39368 -1.1347
thorax 2.40828 -0.646198 -3.013
lowerneck -5.38661 -11.7635 -9.74093
upperneck 5.98355 40.7528 5.83709
head 167.033 61.792 -37.8671
rclavicle 5.96354e-016 -4.37326e-015
rhumerus -40.5174 -30.0371 -79.3082
rradius 16.6892
rwrist 28.0879
rhand -36.4954 2.03698
rfingers 7.12502
rthumb -9.5878 -27.7249
lclavicle 5.96354e-016 -4.37326e-015
lhumerus -39.954 17.032 80.5438
lradius 20.0497
lwrist -42.9029
lhand -33.5747 3.30945
lfingers 7.12502
lthumb -6.76903 33.1812
rfemur -5.46345 -13.7076 20.0894
rtibia 11.6529
rfoot -11.1628 10.9875
rtoes -3.65764e-014
lfemur -11.1297 14.652 -18.7312
ltibia 15.9414
lfoot -5.08602 -15.2561
ltoes -5.24792e-014
45
root -13.6931 16.6504 4.56085 -108.157 87.7385 -116.295
lowerback -11.1858 -0.936121 2.90008
upperback -3.598 -1.3882 -1.14783
thorax 2.41025 -0.643396 -3.00516
lowerneck -5.40186 -11.7449 -9.75023
upperneck 5.98969 40.8122 5.86174
head 167.179 61.741 -37.7854
rclavicle -5.51627e-015 -8.34896e-015
rhumerus -40.5264 -30.1531 -79.2305
rradius 16.6264
rwrist 28.2469
rhand -36.5016 2.06912
rfingers 7.12502
rthumb -9.59377 -27.6924
lclavicle -5.51627e-015 -8.34896e-015
lhumerus -39.9612 17.0202 80.5479
lradius 20.0973
lwrist -42.9122
lhand -33.5002 3.35344
lfingers 7.12502
lthumb -6.69706 33.2275
rfemur -5.48753 -13.7785 20.0583
rtibia 11.6704
rfoot -11.1944 11.0392
rtoes -6.52014e-014
lfemur -11.1396 14.6593 -18.7778
ltibia 15.9364
lfoot -5.0809 -15.2568
ltoes -1.59028e-014
46
root -13.6928 16.6514 4.56126 -108.433 87.756 -116.563
lowerback -11.192 -0.928484 2.89284
upperback -3.58971 -1.37734 -1.16007
thorax 2.42295 -0.637768 -3.01274
lowerneck -5.38549 -11.775 -9.73317
upperneck 5.97478 40.7209 5.83473
head 167.033 61.8095 -37.8646
rclavicle -2.72832e-014 -1.23246e-014
rhumerus -40.562 -30.2066 -79.2084
rradius 16.6517
rwrist 28.2973
rhand -36.4976 2.01833
rfingers 7.12502
rthumb -9.5899 -27.7434
lclavicle -2.72832e-014 -1.23246e-014
lhumerus -39.9244 16.8903 80.6286
lradius 20.0992
lwrist -42.7027
lhand -33.5666 3.37019
lfingers 7.12502
lthumb -6.76124 33.2422
rfemur -5.4844 -13.767 20.033
rtibia 11.684
rfoot -11.188 11.0253
rtoes -3.33958e-014
lfemur -11.1342 14.6539 -18.7967
ltibia 15.9343
lfoot -5.08609 -15.2467
ltoes 6.36111e-015
47
root -13.6922 16.6509 4.56197 -108.148 87.7412 -116.271
lowerback -11.1552 -0.924114 2.90954
upperback -3.61118 -1.37209 -1.14993
thorax 2.38062 -0.636035 -3.0097
lowerneck -5.36897 -11.7904 -9.73216
upperneck 5.9812 40.7017 5.82095
head 166.91 61.8459 -37.9445
rclavicle -3.67752e-015 4.77083e-015
rhumerus -40.613 -30.2043 -79.1617
rradius 16.6573
rwrist 28.2988
rhand -36.4964 2.06854
rfingers 7.12502
rthumb -9.58874 -27.6933
lclavicle -3.67752e-015 4.77083e-015
lhumerus -39.9738 16.9726 80.574
lradius 20.0975
lwrist -42.8185
lhand -33.5401 3.36023
lfingers 7.12502
lthumb -6.73562 33.2331
rfemur -5.47578 -13.7875 20.0535
rtibia 11.6954
rfoot -11.2028 11.0476
rtoes -3.18055e-015
lfemur -11.1207 14.653 -18.7698
ltibia 15.9372
lfoot -5.0905 -15.2471
ltoes 9.54166e-015
48
root -13.6921 16.6517 4.56226 -108.396 87.7612 -116.529
lowerback -11.161 -0.932307 2.88799
upperback -3.60935 -1.38068 -1.15247
thorax 2.38559 -0.640163 -3.00142
lowerneck -5.38342 -11.7823 -9.73719
upperneck 5.98825 40.7441 5.82743
head 166.937 61.806 -37.9326
rclavicle -4.96962e-015 -9.93923e-015
rhumerus -40.6007 -30.1359 -79.2044
rradius 16.6696
rwrist 28.2418
rhand -36.4998 2.05436
rfingers 7.12502
rthumb -9.59209 -27.7073
lclavicle -4.96962e-015 -9.93923e-015
lhumerus -39.9506 16.8801 80.6426
lradius 20.1054
lwrist -42.6675
lhand -33.5736 3.39996
lfingers 7.12502
lthumb -6.76797 33.2718
rfemur -5.48332 -13.803 20.0324
rtibia 11.6957
rfoot -11.2088 11.0581
rtoes 7.95139e-016
lfemur -11.13 14.6326 -18.7958
ltibia 15.9346
lfoot -5.08324 -15.1935
ltoes 2.38542e-014
49
root -13.6916 16.651 4.56266 -108.097 87.7298 -116.198
lowerback -11.1422 -0.925703 2.93142
upperback -3.58714 -1.37745 -1.15373
thorax 2.39747 -0.638598 -3.02676
lowerneck -5.40532 -11.792 -9.70964
upperneck 5.98641 40.7465 5.83419
head 166.911 61.8214 -37.963
rclavicle 9.49197e-015 1.11319e-014
rhumerus -40.5974 -30.2743 -79.1439
rradius 16.6294
rwrist 28.4012
rhand -36.535 2.05635
rfingers 7.12502
rthumb -9.626 -27.7037
lclavicle 9.49197e-015 1.11319e-014
lhumerus -39.963 17.0303 80.5364
lradius 20.1181
lwrist -42.8114
lhand -33.6181 3.35067
lfingers 7.12502
lthumb -6.81096 33.2211
rfemur -5.45171 -13.7923 20.0627
rtibia 11.7114
rfoot -11.2457 11.0489
rtoes 2.46493e-014
lfemur -11.0852 14.6371 -18.7457
ltibia 15.9236
lfoot -5.05164 -15.2334
ltoes -2.8625e-014
